<?xml version="1.0" encoding="utf-8"?>
<!-- Generator: Adobe Illustrator 16.2.0, SVG Export Plug-In . SVG Version: 6.00 Build 0)  -->
<!DOCTYPE svg PUBLIC "-//W3C//DTD SVG 1.1//EN" "http://www.w3.org/Graphics/SVG/1.1/DTD/svg11.dtd">
<svg version="1.1" id="Capa_1" xmlns="http://www.w3.org/2000/svg" xmlns:xlink="http://www.w3.org/1999/xlink" x="0px" y="0px"
	 width="31px" height="42px" viewBox="259.9 254.4 31 42" enable-background="new 259.9 254.4 31 42" xml:space="preserve">
<g>
	<g>
		<path d="M275.807,285.436c-1.349,0-2.136,1.284-2.136,3.001c0,1.729,0.813,2.948,2.149,2.948c1.351,0,2.123-1.284,2.123-3.001
			C277.943,286.798,277.184,285.436,275.807,285.436z"/>
		<path d="M265.754,285.461c-0.446,0-0.735,0.039-0.905,0.078v5.78c0.17,0.04,0.446,0.04,0.695,0.04
			c1.808,0.013,2.987-0.983,2.987-3.093C268.546,286.431,267.471,285.461,265.754,285.461z"/>
		<path d="M289.902,264.986c-0.002-0.184-0.061-0.365-0.187-0.508l-7.712-8.81c-0.002-0.002-0.004-0.003-0.007-0.005
			c-0.046-0.051-0.099-0.094-0.155-0.131c-0.017-0.011-0.033-0.021-0.051-0.031c-0.05-0.026-0.102-0.049-0.155-0.065
			c-0.015-0.004-0.027-0.01-0.042-0.014c-0.059-0.014-0.118-0.022-0.18-0.022h-18.955c-0.865,0-1.569,0.704-1.569,1.569v36.862
			c0,0.865,0.704,1.568,1.569,1.568h25.882c0.865,0,1.568-0.703,1.568-1.568v-28.758
			C289.91,265.045,289.906,265.016,289.902,264.986z M269.188,291.778c-0.931,0.773-2.346,1.14-4.076,1.14
			c-1.036,0-1.77-0.065-2.267-0.131v-8.676c0.733-0.117,1.69-0.184,2.7-0.184c1.677,0,2.765,0.302,3.617,0.943
			c0.918,0.683,1.495,1.77,1.495,3.329C270.655,289.891,270.04,291.058,269.188,291.778z M275.715,292.972
			c-2.621,0-4.154-1.979-4.154-4.496c0-2.647,1.69-4.626,4.298-4.626c2.713,0,4.194,2.031,4.194,4.469
			C280.054,291.215,278.297,292.972,275.715,292.972z M285.886,291.307c0.604,0,1.271-0.132,1.665-0.288l0.302,1.56
			c-0.367,0.184-1.192,0.38-2.268,0.38c-3.054,0-4.626-1.9-4.626-4.417c0-3.014,2.149-4.691,4.822-4.691
			c1.035,0,1.822,0.21,2.176,0.394l-0.406,1.586c-0.406-0.171-0.97-0.328-1.678-0.328c-1.585,0-2.818,0.957-2.818,2.923
			C283.056,290.192,284.104,291.307,285.886,291.307z M262.459,282.035V256.97h18.17v8.025c0,0.433,0.351,0.785,0.784,0.785h6.928
			l0.001,16.255H262.459z"/>
		<path d="M273.413,266.229h5.708c0.286,0,0.52-0.232,0.52-0.52c0-0.287-0.233-0.52-0.52-0.52h-5.708
			c-0.287,0-0.519,0.233-0.519,0.52C272.893,265.996,273.125,266.229,273.413,266.229z"/>
		<path d="M281.912,269.346h-14.199c-0.287,0-0.52,0.233-0.52,0.52c0,0.287,0.233,0.52,0.52,0.52h14.199
			c0.287,0,0.52-0.232,0.52-0.52C282.432,269.579,282.199,269.346,281.912,269.346z"/>
		<path d="M269.197,267.27l0.481-1.956c0.123-0.475,0.204-0.876,0.278-1.32h0.012c0.049,0.45,0.123,0.845,0.228,1.32l0.433,1.956
			h0.815l1.116-4.159h-0.771l-0.432,1.882c-0.111,0.506-0.21,0.981-0.284,1.438h-0.013c-0.062-0.451-0.148-0.913-0.252-1.407
			l-0.414-1.912h-0.796l-0.45,1.882c-0.118,0.524-0.236,1.019-0.303,1.456h-0.012c-0.068-0.413-0.167-0.944-0.272-1.45l-0.395-1.888
			h-0.809l1.019,4.159L269.197,267.27L269.197,267.27z"/>
		<path d="M281.912,273.473h-14.199c-0.287,0-0.52,0.232-0.52,0.52s0.233,0.52,0.52,0.52h14.199c0.287,0,0.52-0.232,0.52-0.52
			S282.199,273.473,281.912,273.473z"/>
		<path d="M281.912,277.698h-14.199c-0.287,0-0.52,0.232-0.52,0.52s0.233,0.52,0.52,0.52h14.199c0.287,0,0.52-0.232,0.52-0.52
			S282.199,277.698,281.912,277.698z"/>
	</g>
</g>
</svg>
