<svg version="1.1" id="Capa_1" xmlns="http://www.w3.org/2000/svg" xmlns:xlink="http://www.w3.org/1999/xlink" x="0px" y="0px" width="31px" height="42px" viewBox="259.9 254.4 31 42" enable-background="new 259.9 254.4 31 42" xml:space="preserve"> <g> <g> <path d="M274.815,285.517c-0.48,0-0.791,0.043-0.974,0.085v6.225c0.184,0.043,0.48,0.043,0.749,0.043 c1.947,0.014,3.218-1.059,3.218-3.331C277.821,286.562,276.664,285.517,274.815,285.517z"></path> <path d="M266.5,285.489c-0.438,0-0.734,0.042-0.89,0.084v2.81c0.184,0.042,0.41,0.057,0.719,0.057c1.144,0,1.85-0.579,1.85-1.553 C268.179,286.012,267.572,285.489,266.5,285.489z"></path> <path d="M289.902,264.986c-0.002-0.184-0.061-0.365-0.187-0.508l-7.712-8.81c-0.002-0.002-0.005-0.003-0.007-0.005 c-0.046-0.051-0.099-0.094-0.155-0.131c-0.017-0.011-0.034-0.021-0.052-0.031c-0.049-0.026-0.101-0.049-0.155-0.065 c-0.014-0.004-0.027-0.01-0.042-0.014c-0.058-0.014-0.118-0.022-0.179-0.022h-18.955c-0.865,0-1.569,0.704-1.569,1.569v36.862 c0,0.865,0.704,1.568,1.569,1.568h25.882c0.864,0,1.568-0.703,1.568-1.568v-28.758 C289.91,265.045,289.906,265.016,289.902,264.986z M269.436,289.088c-0.734,0.691-1.821,1.003-3.091,1.003 c-0.282,0-0.537-0.015-0.734-0.042v3.401h-2.131v-9.388c0.663-0.112,1.595-0.197,2.908-0.197c1.327,0,2.272,0.254,2.908,0.762 c0.607,0.48,1.016,1.271,1.016,2.202C270.311,287.762,270,288.552,269.436,289.088z M278.513,292.321 c-1.001,0.832-2.525,1.228-4.389,1.228c-1.115,0-1.905-0.07-2.442-0.141v-9.346c0.791-0.126,1.821-0.197,2.908-0.197 c1.806,0,2.978,0.324,3.896,1.017c0.988,0.733,1.609,1.905,1.609,3.585C280.094,290.288,279.431,291.544,278.513,292.321z M287.323,285.7h-3.657v2.174h3.416v1.751h-3.416v3.825h-2.158v-9.514h5.815V285.7z M262.459,282.035V256.97h18.17v8.025 c0,0.433,0.351,0.785,0.784,0.785h6.928l0.001,16.255H262.459z"></path> <path d="M283.447,272.259c-0.046-0.004-1.151-0.105-2.848-0.105c-0.531,0-1.066,0.01-1.596,0.03 c-3.35-2.514-6.094-5.03-7.563-6.44c0.027-0.155,0.045-0.278,0.054-0.372c0.194-2.045-0.021-3.426-0.638-4.104 c-0.403-0.443-0.996-0.59-1.614-0.421c-0.384,0.101-1.095,0.473-1.322,1.231c-0.251,0.838,0.153,1.854,1.213,3.034 c0.017,0.018,0.377,0.395,1.031,1.034c-0.425,2.027-1.538,6.401-2.078,8.502c-1.268,0.678-2.325,1.494-3.143,2.43l-0.054,0.062 l-0.035,0.074c-0.084,0.177-0.487,1.096-0.185,1.833c0.138,0.336,0.396,0.581,0.748,0.71l0.094,0.025c0,0,0.085,0.018,0.234,0.018 c0.654,0,2.27-0.344,3.136-3.536l0.21-0.809c3.024-1.47,6.804-1.944,9.543-2.076c1.409,1.045,2.812,2.005,4.17,2.855l0.045,0.025 c0.065,0.034,0.662,0.328,1.359,0.329l0,0c0.997,0,1.726-0.612,1.997-1.679l0.014-0.073c0.075-0.609-0.077-1.159-0.442-1.588 C285.009,272.342,283.576,272.263,283.447,272.259z M265.772,278.621c-0.006-0.007-0.009-0.014-0.012-0.021 c-0.065-0.157,0.013-0.537,0.128-0.815c0.493-0.552,1.085-1.058,1.769-1.514C266.991,278.425,266.023,278.611,265.772,278.621z M269.997,264.311L269.997,264.311c-1.022-1.137-1.007-1.701-0.952-1.891c0.09-0.317,0.497-0.437,0.501-0.438 c0.205-0.056,0.329-0.045,0.44,0.077c0.251,0.275,0.466,1.106,0.381,2.63C270.125,264.446,269.997,264.311,269.997,264.311z M269.468,273.997l0.018-0.067l-0.002,0c0.512-2.004,1.25-4.938,1.673-6.823l0.016,0.015l0.001-0.009 c1.373,1.292,3.477,3.183,5.997,5.149l-0.028,0.001l0.042,0.031C274.811,272.496,271.976,272.964,269.468,273.997z M285.059,274.654c-0.182,0.664-0.529,0.755-0.848,0.755l0,0c-0.37,0-0.726-0.154-0.807-0.191 c-0.926-0.58-1.872-1.212-2.827-1.888c0.007,0,0.014,0,0.022,0c1.638,0,2.729,0.1,2.771,0.103c0.273,0.01,1.139,0.138,1.512,0.576 C285.029,274.181,285.085,274.386,285.059,274.654z"></path> </g> </g> </svg>