<?xml version="1.0" encoding="utf-8"?>
<!-- Generator: Adobe Illustrator 16.2.0, SVG Export Plug-In . SVG Version: 6.00 Build 0)  -->
<!DOCTYPE svg PUBLIC "-//W3C//DTD SVG 1.1//EN" "http://www.w3.org/Graphics/SVG/1.1/DTD/svg11.dtd">
<svg version="1.1" id="Capa_1" xmlns="http://www.w3.org/2000/svg" xmlns:xlink="http://www.w3.org/1999/xlink" x="0px" y="0px"
	 width="23.925px" height="16px" viewBox="0 0 23.925 16" enable-background="new 0 0 23.925 16" xml:space="preserve">
<g>
	<path fill="#FFFFFF" d="M11.994,9.597h0.004c0.18,0,0.359-0.054,0.504-0.148l0.039-0.024c0.008-0.006,0.018-0.011,0.025-0.017
		l0.455-0.377L23.9,0.052C23.878,0.022,23.839,0,23.798,0H0.126C0.097,0,0.07,0.011,0.048,0.028l11.381,9.381
		C11.573,9.526,11.777,9.597,11.994,9.597z M0.001,1.272v13.307l8.152-6.586L0.001,1.272z M15.781,8.036l8.145,6.545V1.315
		L15.781,8.036z M13.191,10.173c-0.322,0.268-0.748,0.413-1.193,0.413c-0.449,0-0.873-0.146-1.197-0.411l-1.867-1.54L0,15.851v0.022
		C0,15.94,0.058,16,0.128,16h23.67c0.068,0,0.127-0.06,0.127-0.128v-0.021L15,8.679L13.191,10.173z"/>
</g>
</svg>
