<?xml version="1.0" encoding="utf-8"?>
<!-- Generator: Adobe Illustrator 16.2.0, SVG Export Plug-In . SVG Version: 6.00 Build 0)  -->
<!DOCTYPE svg PUBLIC "-//W3C//DTD SVG 1.1//EN" "http://www.w3.org/Graphics/SVG/1.1/DTD/svg11.dtd">
<svg version="1.1" id="Capa_1" xmlns="http://www.w3.org/2000/svg" xmlns:xlink="http://www.w3.org/1999/xlink" x="0px" y="0px"
	 width="31.833px" height="40.333px" viewBox="34.083 29.833 31.833 40.333" enable-background="new 34.083 29.833 31.833 40.333"
	 xml:space="preserve">
<g>
	<path d="M65.716,40.507c-0.003-0.019-0.005-0.036-0.008-0.054c-0.002-0.006-0.003-0.013-0.003-0.018
		c-0.004-0.021-0.011-0.042-0.016-0.063c-0.001-0.002-0.002-0.005-0.003-0.007c-0.006-0.021-0.014-0.042-0.021-0.061
		c-0.001-0.002-0.001-0.005-0.003-0.007c-0.008-0.019-0.016-0.037-0.025-0.055c-0.001-0.003-0.003-0.007-0.005-0.01
		c-0.009-0.017-0.019-0.032-0.028-0.048c-0.003-0.005-0.006-0.01-0.009-0.015c-0.01-0.014-0.021-0.027-0.031-0.041
		c-0.004-0.005-0.008-0.012-0.013-0.017c-0.013-0.016-0.026-0.031-0.04-0.045c-0.003-0.002-0.005-0.006-0.008-0.008l-9.843-9.842
		l0,0c-0.017-0.018-0.035-0.034-0.054-0.049c-0.003-0.003-0.008-0.006-0.012-0.009c-0.015-0.012-0.03-0.023-0.046-0.034
		c-0.003-0.003-0.008-0.004-0.011-0.007c-0.018-0.011-0.034-0.021-0.052-0.03c-0.002-0.001-0.005-0.002-0.008-0.004
		c-0.019-0.01-0.038-0.019-0.058-0.027c-0.001,0-0.002-0.001-0.003-0.001c-0.021-0.009-0.043-0.017-0.065-0.023c0,0-0.001,0-0.002,0
		c-0.022-0.007-0.045-0.012-0.066-0.017c-0.004,0-0.007,0-0.01-0.001c-0.021-0.004-0.041-0.007-0.063-0.009
		c-0.014-0.001-0.027-0.001-0.041-0.002c-0.011,0-0.021-0.001-0.032-0.001c0,0,0,0-0.001,0H35.019c-0.408,0-0.738,0.33-0.738,0.738
		v38.524c0,0.408,0.331,0.738,0.738,0.738H64.98c0.408,0,0.738-0.33,0.738-0.738V40.58l0,0l0,0c0-0.001,0-0.002,0-0.003
		C65.719,40.553,65.718,40.53,65.716,40.507z M63.199,39.842l-7.322,0.001l-0.001-7.323L63.199,39.842z M64.243,68.523H35.757
		V31.476H54.4l0.001,9.105c0,0.196,0.077,0.383,0.216,0.522c0.139,0.138,0.326,0.216,0.522,0.216l9.104-0.001V68.523z"/>
	<path d="M45.07,40.333c1.692,0,3.069-1.377,3.069-3.07s-1.376-3.07-3.069-3.07S42,35.569,42,37.262S43.377,40.333,45.07,40.333z
		 M45.07,35.669c0.878,0,1.593,0.715,1.593,1.594c0,0.878-0.714,1.593-1.593,1.593s-1.593-0.714-1.593-1.593
		S44.191,35.669,45.07,35.669z"/>
	<path d="M41.64,45.935c0.408,0,0.738-0.331,0.738-0.738v-1.294c0-0.837,0.681-1.518,1.518-1.518h2.365
		c0.837,0,1.519,0.681,1.519,1.518v1.294c0,0.407,0.331,0.738,0.738,0.738c0.408,0,0.738-0.331,0.738-0.738v-1.294
		c0-1.651-1.343-2.994-2.995-2.994h-2.365c-1.651,0-2.994,1.343-2.994,2.994v1.294C40.902,45.604,41.233,45.935,41.64,45.935z"/>
	<path d="M40.902,51.145c0,0.407,0.331,0.738,0.738,0.738h16.72c0.408,0,0.738-0.331,0.738-0.738c0-0.408-0.33-0.739-0.738-0.739
		H41.64C41.233,50.406,40.902,50.736,40.902,51.145z"/>
	<path d="M58.36,61.329H41.64c-0.407,0-0.738,0.33-0.738,0.737s0.331,0.738,0.738,0.738h16.72c0.408,0,0.738-0.331,0.738-0.738
		S58.769,61.329,58.36,61.329z"/>
	<path d="M58.36,55.867H41.64c-0.407,0-0.738,0.331-0.738,0.738s0.331,0.738,0.738,0.738h16.72c0.408,0,0.738-0.331,0.738-0.738
		S58.769,55.867,58.36,55.867z"/>
</g>
</svg>
